<svg xmlns="http://www.w3.org/2000/svg" xmlns:xlink="http://www.w3.org/1999/xlink" width="537.992" height="490.936" viewBox="0 0 537.992 490.936">
  <defs>
    <filter id="Path_8" x="225.375" y="0" width="312.617" height="490.936" filterUnits="userSpaceOnUse">
      <feOffset dx="12" dy="12" input="SourceAlpha"/>
      <feGaussianBlur stdDeviation="6" result="blur"/>
      <feFlood flood-color="#627079" flood-opacity="0.051"/>
      <feComposite operator="in" in2="blur"/>
      <feComposite in="SourceGraphic"/>
    </filter>
    <filter id="Path_4118" x="23.499" y="0" width="312.618" height="490.936" filterUnits="userSpaceOnUse">
      <feOffset dx="12" dy="12" input="SourceAlpha"/>
      <feGaussianBlur stdDeviation="6" result="blur-2"/>
      <feFlood flood-color="#627079" flood-opacity="0.051"/>
      <feComposite operator="in" in2="blur-2"/>
      <feComposite in="SourceGraphic"/>
    </filter>
    <linearGradient id="linear-gradient" x1="2.367" y1="-8.467" x2="3.306" y2="-8.467" gradientUnits="objectBoundingBox">
      <stop offset="0" stop-color="#fff"/>
      <stop offset="0.256" stop-color="#c1c1c1"/>
      <stop offset="0.845" stop-color="#292929"/>
      <stop offset="1"/>
    </linearGradient>
    <filter id="Rounded_Rectangle_1" x="250" y="1.563" width="172" height="108" filterUnits="userSpaceOnUse">
      <feOffset dy="12" input="SourceAlpha"/>
      <feGaussianBlur stdDeviation="12" result="blur-3"/>
      <feFlood flood-color="#a1b1bc" flood-opacity="0.192"/>
      <feComposite operator="in" in2="blur-3"/>
      <feComposite in="SourceGraphic"/>
    </filter>
    <filter id="Rounded_Rectangle_1-2" x="0" y="99.563" width="171" height="108" filterUnits="userSpaceOnUse">
      <feOffset dy="12" input="SourceAlpha"/>
      <feGaussianBlur stdDeviation="12" result="blur-4"/>
      <feFlood flood-color="#a1b1bc" flood-opacity="0.192"/>
      <feComposite operator="in" in2="blur-4"/>
      <feComposite in="SourceGraphic"/>
    </filter>
    <filter id="Rounded_Rectangle_1-3" x="166" y="142.563" width="171" height="108" filterUnits="userSpaceOnUse">
      <feOffset dy="12" input="SourceAlpha"/>
      <feGaussianBlur stdDeviation="12" result="blur-5"/>
      <feFlood flood-color="#a1b1bc" flood-opacity="0.192"/>
      <feComposite operator="in" in2="blur-5"/>
      <feComposite in="SourceGraphic"/>
    </filter>
  </defs>
  <g id="Group_3339" data-name="Group 3339" transform="translate(-654 -115.437)">
    <g transform="matrix(1, 0, 0, 1, 654, 115.44)" filter="url(#Path_8)">
      <path id="Path_8-2" data-name="Path 8" d="M182.894,414.936a54.285,54.285,0,0,0,38.5-15.951c21.27-21.268,19.287-53.925,0-77-21.674-25.953-77.1-111.13-77.1-111.13a4.8,4.8,0,0,1,0-6.791s55.422-85.16,77.1-111.113c19.287-23.075,21.27-55.732,0-77a54.469,54.469,0,0,0-77.026,0L33.248,127.064a113.846,113.846,0,0,0,0,160.808L144.372,398.985A54.3,54.3,0,0,0,182.894,414.936Z" transform="translate(251.38 26)" fill="none" stroke="#fff" stroke-linejoin="round" stroke-width="40"/>
    </g>
    <path id="Path_8-3" data-name="Path 8" stroke="#dfe7ed" d="M182.894,414.936a54.285,54.285,0,0,0,38.5-15.951c21.27-21.268,19.287-53.925,0-77-21.674-25.953-77.1-111.13-77.1-111.13a4.8,4.8,0,0,1,0-6.791s55.422-85.16,77.1-111.113c19.287-23.075,21.27-55.732,0-77a54.469,54.469,0,0,0-77.026,0L33.248,127.064a113.846,113.846,0,0,0,0,160.808L144.372,398.985A54.3,54.3,0,0,0,182.894,414.936Z" fill="none" transform="translate(905.375 141.437)" stroke-linecap="round" stroke-linejoin="round" stroke-width="5" stroke-dasharray="10 30"/>
    <g transform="matrix(1, 0, 0, 1, 654, 115.44)" filter="url(#Path_4118)">
      <path id="Path_4118-2" data-name="Path 4118" d="M53.722,0a54.285,54.285,0,0,0-38.5,15.951c-21.27,21.268-19.287,53.925,0,77,21.674,25.953,77.1,111.13,77.1,111.13a4.8,4.8,0,0,1,0,6.791s-55.422,85.16-77.1,111.113c-19.287,23.075-21.27,55.732,0,77a54.469,54.469,0,0,0,77.026,0L203.368,287.872a113.846,113.846,0,0,0,0-160.808L92.244,15.951A54.3,54.3,0,0,0,53.722,0Z" transform="translate(49.5 26)" fill="none" stroke="#dfe7ed" stroke-linejoin="round" stroke-width="40"/>
    </g>
    <path id="Path_8-4" data-name="Path 8" stroke="#fff" d="M53.722,414.936a54.285,54.285,0,0,1-38.5-15.951c-21.27-21.268-19.287-53.925,0-77,21.674-25.953,77.1-111.13,77.1-111.13a4.8,4.8,0,0,0,0-6.791S36.892,118.9,15.218,92.951c-19.287-23.075-21.27-55.732,0-77a54.469,54.469,0,0,1,77.026,0L203.368,127.064a113.846,113.846,0,0,1,0,160.808L92.244,398.985A54.3,54.3,0,0,1,53.722,414.936Z" fill="none" transform="translate(703.501 141.437)" stroke-linecap="round" stroke-linejoin="round" stroke-width="5" stroke-dasharray="10 30"/>
    <g id="Group_3280" data-name="Group 3280" transform="translate(703.502 361.854)">
      <g id="Group_2026" data-name="Group 2026" transform="translate(0 74.315)">
        <path id="Path_2401" data-name="Path 2401" d="M363.859,417.945a34.907,34.907,0,0,0,7.058.306c.955-.113,1.566-.381,1.49-.879a5.651,5.651,0,0,1,.306-2.9l.038-.038-2.136-1.68-2.789-2.253a5.164,5.164,0,0,1-1.03,1.985,9.614,9.614,0,0,1-1.106,1.26,6,6,0,0,0-1.6,2.71A6.478,6.478,0,0,0,363.859,417.945Z" transform="translate(-361.722 -298.311)" fill="#ffe7be"/>
        <path id="Path_2402" data-name="Path 2402" d="M364.634,488.387a2.557,2.557,0,0,0,.495.687,6.758,6.758,0,0,0,3.513,1.872h.038a7.116,7.116,0,0,0,2.366.113,1.6,1.6,0,0,0,.608-.038c10.152-23.43,22.822-50.563,24.347-58.96.192-1.03.344-2.25.536-3.661.038-.5.113-.993.189-1.528v-.038a291,291,0,0,0,1.415-29.8,178.586,178.586,0,0,0-.879-18.2c-.076-.649-.151-1.3-.23-1.906L378.6,374.9a82.991,82.991,0,0,0-3.245,19.766c-.532,17.633,6.642,25,2.634,39.5C375.281,444.044,364.634,488.387,364.634,488.387Z" transform="translate(-360.055 -374.897)" fill="#0091ff"/>
        <path id="Path_2403" data-name="Path 2403" d="M363.333,417.917c6.718,1.49,13.206,3.091,19.539,4.121.344-1.6-2.1-4.159-4.771-6.182a26.682,26.682,0,0,0-3.816-2.48c-.151.038-.268.076-.419.113a7.846,7.846,0,0,1-1.834.347,10.31,10.31,0,0,1-6.485-1.26,3.213,3.213,0,0,1-.5-.268A6.106,6.106,0,0,0,363.333,417.917Z" transform="translate(-363.181 -294.428)" fill="#37174a"/>
      </g>
      <g id="Group_2027" data-name="Group 2027" transform="translate(25.262 77.481)">
        <path id="Path_2404" data-name="Path 2404" d="M374.27,420.206a42.261,42.261,0,0,0,6.107-.841c1.374-.344,2.366-.8,2.136-1.412v-.038a4.858,4.858,0,0,1-.23-2.9l-2.631-1.374-2.978-1.528a5.828,5.828,0,0,1-.611,2.177,12.364,12.364,0,0,1-.838,1.449,6.768,6.768,0,0,0-.955,4.465Z" transform="translate(-364.729 -298.013)" fill="#ffe7be"/>
        <path id="Path_2405" data-name="Path 2405" d="M382.57,426.846a35.428,35.428,0,0,1,1.6,8.967c-.038,10.228-2.291,55.794-2.291,55.794a2.362,2.362,0,0,0,.649.573,5.864,5.864,0,0,0,3.359,1.068,7.21,7.21,0,0,0,2.861-.344,2.088,2.088,0,0,0,.536-.154c5.3-24.955,12.289-54.111,12.1-62.621-.151-6.526-2.136-21.713-5.19-35.873a155.039,155.039,0,0,0-4.808-18.354l-8.243.763L371.2,377.77a126.3,126.3,0,0,0,2.291,16.791c2.442,11.907,6.144,22.173,8.473,30.148.151.536.3,1.03.457,1.528.038.189.113.381.151.57Z" transform="translate(-371.198 -375.902)" fill="#0091ff"/>
        <path id="Path_2406" data-name="Path 2406" d="M374.195,420.572c6.869.113,13.546.381,19.958.113,0-1.487-2.328-3.242-5-4.654A24.257,24.257,0,0,0,384,413.895a1.791,1.791,0,0,1-.381.189,9.8,9.8,0,0,1-2.518.955,10.272,10.272,0,0,1-5.763-.113c-.192-.079-.381-.116-.573-.192A6.128,6.128,0,0,0,374.195,420.572Z" transform="translate(-365.835 -294.182)" fill="#37174a"/>
      </g>
      <path id="Path_2407" data-name="Path 2407" d="M405.595,428.634c-2.357,1.33-33.088,1.367-36.352-1.938,1.935-25.526-7.512-53.166,3.015-64.711,6.267-3.343,22.488-2.773,31.872,1.405a5.76,5.76,0,0,1,.873.381c.227,3.3.457,6.57.608,9.762.113,1.594.189,3.113.265,4.673C406.827,395.527,407.646,418.189,405.595,428.634Z" transform="translate(-354.561 -333.013)" fill="#ffa200"/>
      <path id="Path_2408" data-name="Path 2408" d="M372.494,364.964c1.27-2.152,1.522-4.578,1.632-7.326h5.842a25.055,25.055,0,0,0,.794,8.145C380.157,366.93,373.067,366.476,372.494,364.964Z" transform="translate(-343.148 -337.705)" fill="#ffe7be"/>
      <path id="Path_2409" data-name="Path 2409" d="M372.31,370.429c4.008,1.8,8.041,3.665,10.5,2,2.779-3.148,5.36-13.039,5.549-18.6l-16.026-1.144Z" transform="translate(-343.544 -348.35)" fill="#ffe7be"/>
      <path id="Path_2410" data-name="Path 2410" d="M374.7,371.742c1.724,1.547-.5,3.507,5.092,4.166,3.334.384,5.665-3.025,5.316-5.961-1.623-1.194-3.6-2.388-3.6-3.7-.255-1.131.586-1.834,1.651-2.231a7.4,7.4,0,0,1,1.95,2.439l1.282-1.475-.992-4.137c3.586.425,6.872.586,7.65-1.456,1.872-2.546,1.26-3.857.322-5.9-4.714-4.225-6.214-.454-9.989-2.02-3.353-1.021-7.32,3-9.67,4.66C369.8,359.337,368.951,366.417,374.7,371.742Z" transform="translate(-347.259 -351.312)" fill="#033e9d"/>
      <path id="Path_2411" data-name="Path 2411" d="M396.267,389.555c-8.1,2.316-17.834-18.543-20.812-23.623l11.715-4.862.072-.022c2.956,2.924,5.779,10.556,8.615,17.74l30.132-13,2.347,3.961C419.968,375.471,399.147,389.41,396.267,389.555Z" transform="translate(-336.78 -330.368)" fill="#ffa200"/>
      <path id="Path_2412" data-name="Path 2412" d="M391.493,366.395a10.718,10.718,0,0,1,1.724-4.739c2.146,0,1.068,2.117,2.584,1.831l2.291-2.719c1.481,1.289,1.768,3.1.425,5.628a26.894,26.894,0,0,1-4.676,3.961Z" transform="translate(-302.283 -330.975)" fill="#ffe7be"/>
      <path id="Path_2413" data-name="Path 2413" d="M378.391,365.625a59.119,59.119,0,0,1,2.388,9.185c.636,3.211,1.345,7.357,1.869,12.509-.076-3.586-.186-7.282-.337-10.868,2.54,2.5,5.19,3.961,7.657,3.249,1.456-.072,7.54-3.7,14.3-8.025-6.535,2.911-12.843,5.038-15.569,4.181-1.906-.6-4.556-3.249-6.686-5.713C380.184,368.013,378.728,366.035,378.391,365.625Z" transform="translate(-330.464 -320.526)" opacity="0.1"/>
      <path id="Path_2414" data-name="Path 2414" d="M366.223,459.4a1.66,1.66,0,0,0,.344.533c.917,1.3,2.9,1.487,5.725,1.487a26.686,26.686,0,0,0-3.816-2.48c-.151.038-.268.076-.419.114a5.652,5.652,0,0,1,.306-2.9,1.6,1.6,0,0,0,.608-.038c10.152-23.43,22.822-50.563,24.347-58.96.192-1.03.344-2.25.536-3.661.038.189.113.381.151.57a12.809,12.809,0,0,0,.038-2.1v-.038c-.038-.536-.151-.8-.3-.8a7.223,7.223,0,0,1-.343.838c-2.826,6.639-22.287,46.328-26.181,58.847a31.986,31.986,0,0,0-.952,3.624,8.6,8.6,0,0,0-.268,1.6h-.038A6.848,6.848,0,0,0,366.223,459.4Z" transform="translate(-357.371 -265.675)" opacity="0.1"/>
      <path id="Path_2415" data-name="Path 2415" d="M375.893,480.832a5.516,5.516,0,0,0,.574,3.51,1.536,1.536,0,0,0,.381.495c1.374,1.49,4.2,1.222,7.669.5a24.255,24.255,0,0,0-5.152-2.136,1.787,1.787,0,0,1-.381.189,4.859,4.859,0,0,1-.23-2.9,2.088,2.088,0,0,0,.535-.154c5.3-24.955,12.289-54.111,12.1-62.622-.151-6.526-2.136-21.713-5.189-35.873-1.45-.532-7.442.384-8.624.573a.673.673,0,0,1-.192.038s5.955,28.888,8.854,38.848-7.824,47.551-9.922,56.9c-.076.306-.113.611-.189.917A17.191,17.191,0,0,0,375.893,480.832Z" transform="translate(-335.938 -286.004)" opacity="0.1"/>
    </g>
    <g id="Group_3281" data-name="Group 3281" transform="translate(1022.393 361.854)">
      <g id="Group_2030" data-name="Group 2030" transform="translate(43.189 93.014)">
        <path id="Path_2419" data-name="Path 2419" d="M419.951,479.584c-2.656-20.525-8.678-42.065-8.3-52.976.652-13.492,4.9-29.149,10.908-44.844l10.644,2.357c.2,14.04,1.3,22.06-6.951,42.812-1.289,12.383-1.005,30.813.533,50.824C426.634,479.509,422.245,480.558,419.951,479.584Z" transform="translate(-410.821 -381.764)" fill="#ffe7be"/>
        <path id="Path_2420" data-name="Path 2420" d="M424.8,412.464s2.71,2.054,1.96,4-14.208,6.548-14.208,6.548,3.179-5.542,5.417-8.722C420.323,410.945,424.8,412.464,424.8,412.464Z" transform="translate(-408.839 -316.471)" fill="#ffe7be"/>
        <path id="Path_2421" data-name="Path 2421" d="M417.921,416.522s-6.406,6.261-6.544,8.268,6.623.592,7.953-.589.652-2.193,4.679-4.049,5.435,1.887,5.435,1.887a1.285,1.285,0,0,0,1.3-.775s-1.446-2.234-.6-4.235-.964-4.859-2.373-4.7-2.924,4.188-5.1,3.81S419.311,415.111,417.921,416.522Z" transform="translate(-411.374 -316.029)" fill="#36164d"/>
      </g>
      <g id="Group_2031" data-name="Group 2031" transform="translate(59.549 94.766)">
        <path id="Path_2422" data-name="Path 2422" d="M438.181,478.31c-7.228-19.394-17.963-39.015-20.065-49.728-2.414-13.291-1.818-29.5.488-46.148l10.9-.113c3.375,13.634,5.977,21.527,2.631,43.606,1.544,12.355,6.264,29.915,12.286,49.06C444.675,476.725,440.632,478.738,438.181,478.31Z" transform="translate(-416.567 -382.32)" fill="#ffe7be"/>
        <path id="Path_2423" data-name="Path 2423" d="M431.921,411.742s3.1,1.386,2.817,3.453-12.361,9.591-12.361,9.591,1.846-6.119,3.305-9.721C427.217,411.275,431.921,411.742,431.921,411.742Z" transform="translate(-404.068 -319.076)" fill="#ffe7be"/>
        <path id="Path_2424" data-name="Path 2424" d="M425.907,418.145s-4.827,7.55-4.509,9.532,6.589-.917,7.616-2.37.142-2.281,3.642-5,5.722.611,5.722.611a1.291,1.291,0,0,0,1.09-1.049s-1.916-1.85-1.541-3.989-2.039-4.515-3.372-4.043-1.9,4.742-4.106,4.865S426.941,416.456,425.907,418.145Z" transform="translate(-406.206 -318.969)" fill="#36164d"/>
      </g>
      <path id="Path_2425" data-name="Path 2425" d="M410.319,430.579c1.071,3.441,38.542,1.853,42.55-3.513,1.4-1.869-.3-47.6-3.176-47.623l-35.048-1.5Z" transform="translate(-370.455 -296.969)" fill="#dfe3e6"/>
      <path id="Path_2426" data-name="Path 2426" d="M452.427,426.411c-9.8,2.234-24.877.926-40.937-2.347,9.418-40.953-9.935-44.286,4.506-62.363,1.56-.347,3.138-.618,4.758-.829a79.506,79.506,0,0,1,19.041-.06c2.136.233,4.313.52,6.507.889a76.613,76.613,0,0,1,2.823,14.106C451.432,394.986,450.081,419.352,452.427,426.411Z" transform="translate(-370.212 -334.979)" fill="#0091ff"/>
      <path id="Path_2427" data-name="Path 2427" d="M420.66,376.88c-1.059.463-2.117.942-3.2,1.424l-2.366-4.774,2.637-1.752Z" transform="translate(-360.182 -310.227)" fill="#efc59c"/>
      <g id="Group_2033" data-name="Group 2033" transform="translate(42.133 26.721)">
        <g id="Group_2032" data-name="Group 2032" transform="translate(9.761)">
          <path id="Path_2428" data-name="Path 2428" d="M438.207,360.727a58.062,58.062,0,0,1,10.984,24.35c-4.717,5.643-19.085,12.38-32.874,18.411l-2.181-4.153L440.3,381.791l-9.494-14.97Z" transform="translate(-414.137 -360.721)" fill="#fbd783"/>
          <path id="Path_2429" data-name="Path 2429" d="M445.333,385.079c-2.322,4.54-14.866,10.323-26.474,15.578l-2.927-5.1,19.807-13.672L426.3,366.617l8.038-5.892C436.048,360.731,445.9,378.745,445.333,385.079Z" transform="translate(-410.276 -360.725)" fill="#0091ff"/>
          <path id="Path_2430" data-name="Path 2430" d="M421.237,378.716l-3.774.4-2.368-4.775,1.964-2.946.674,1.194,2.927,5.1Z" transform="translate(-412.077 -337.764)" fill="#fff"/>
        </g>
        <path id="Path_2431" data-name="Path 2431" d="M422.98,377.133a23.906,23.906,0,0,1-2.993,2.168c-1.163.618-9.67-1.626-8.9-2.631s5.36-.372,6.711-.948a8.287,8.287,0,0,0,3-2.741Z" transform="translate(-411.039 -334.365)" fill="#fbd783"/>
      </g>
      <g id="Group_2035" data-name="Group 2035" transform="translate(0 15.97)">
        <g id="Group_2034" data-name="Group 2034" transform="translate(6.539 6.649)">
          <path id="Path_2432" data-name="Path 2432" d="M447.388,369.017a58.117,58.117,0,0,1-19.2,18.572c-6.907-2.53-18.108-13.776-28.447-24.71l3.173-3.456,25.359,18.685,10.877-14Z" transform="translate(-399.743 -359.423)" fill="#ffe7be"/>
          <path id="Path_2433" data-name="Path 2433" d="M424.89,384.851c-5.057-.649-14.74-10.5-23.613-19.646l3.813-4.478,18.559,11L435.827,360.7l8.265,5.571C444.665,367.877,431.044,383.241,424.89,384.851Z" transform="translate(-396.444 -356.685)" fill="#0091ff"/>
          <path id="Path_2434" data-name="Path 2434" d="M402.166,367.364l-1.657-3.415,3.692-3.844,3.437.852-.9,1.038-3.812,4.48Z" transform="translate(-398.096 -357.954)" fill="#fff"/>
        </g>
        <path id="Path_2435" data-name="Path 2435" d="M404.257,367.421a23.726,23.726,0,0,1-3.472-1.267c-1.163-.614-4.071-8.92-2.8-8.842s3.312,4.229,4.544,5.029a17.993,17.993,0,0,0,4.855,1.62Z" transform="translate(-397.668 -357.313)" fill="#ffe7be"/>
      </g>
      <path id="Path_2436" data-name="Path 2436" d="M432.749,360.812c-.057.022-.1.041-.154.06-5.064,1.541-13.111,22.217-13.111,22.217s-3.157-16.366-5.776-22.217A79.506,79.506,0,0,1,432.749,360.812Z" transform="translate(-363.166 -334.979)" fill="#00d8ff"/>
      <path id="Path_2437" data-name="Path 2437" d="M415.293,364.552c4.591-2.237,2.272-6.1,3.11-5.955l5.076-.258c.416.183-.315,4.37,2.36,6.321A8.073,8.073,0,0,1,415.293,364.552Z" transform="translate(-359.757 -339.138)" fill="#ffe7be"/>
      <path id="Path_2438" data-name="Path 2438" d="M415.556,355.178c-1.654,2.265-1.219,11.545.718,14.113,1.73,1.894,6.264-.3,9.377-.655,1.626-5.265,2.719-9.913,2.039-13C422.961,354.06,418.688,353.43,415.556,355.178Z" transform="translate(-361.39 -348.194)" fill="#ffe7be"/>
      <path id="Path_2439" data-name="Path 2439" d="M414.624,361.235c1.163,1.777,6.135,3.384,8.649,1.61s3.119,1.96,1.683,4.282-4.137,8.8,1.178,10.987c3.463,1.421,11.567-.488,8.359-3.223s-4.247-4.062-1.462-7.244c2.59-2.956,1.613-9.973-.533-12.172-4.121-4.216-11.485-3.835-15.487-1.541C412.765,356.37,413.473,359.484,414.624,361.235Z" transform="translate(-363.092 -352.244)" fill="#eb339e"/>
      <path id="Path_2440" data-name="Path 2440" d="M442.337,485.38a1.328,1.328,0,0,1-1.1,1.049,3.74,3.74,0,0,0-5.716-.63c-3.523,2.732-2.612,3.57-3.661,5.016-1.027,1.446-7.282,4.364-7.606,2.357-.164-.98.955-3.337,2.1-5.461a8.954,8.954,0,0,1,1.26-.35c.233-.044.444-.069.677-.091a13.663,13.663,0,0,0,3.078-.655,6.61,6.61,0,0,0,3.687-5.621,8.437,8.437,0,0,0,.025-1.516c0-.142-.025-.281-.025-.4a11.167,11.167,0,0,0-.35-1.774,35.47,35.47,0,0,0-2.776-6.6c-5.716-11.759-8.142-24.8-10.36-37.679-.536-3.082-1.071-6.185-1.494-9.286-.488-3.5,6.384-6.992,6.053-10.5-.577-6.132.51-15.95,1.125-19.12-.262-4.54,3.416-12.982,3.649-12.8,1.4,13.533,2.007,37.168,1.027,38.473-.863,1.166-3.29,2.146-6.579,2.94-.186,1.679-.444,3.453-.725,5.344,1.541,12.364,6.276,29.912,12.3,49.066a3.372,3.372,0,0,1,.419.233s0-.022.022,0c.025-.022.025-.047.047-.047,1.33-.466,3.756,1.916,3.384,4.062C440.4,483.515,442.337,485.38,442.337,485.38Z" transform="translate(-349.516 -289.709)" opacity="0.1"/>
      <path id="Path_2441" data-name="Path 2441" d="M430.6,458.209a1.334,1.334,0,0,1-1.3.794s-1.4-3.756-5.435-1.891c-4.014,1.843-3.337,2.871-4.666,4.036-1.169,1.052-6.6,2.266-7.748,1.144.958-.885,2.357-1.982,3.617-2.94.863-.652,1.657-1.26,2.215-1.727,2.357-1.913,5.624-1.632,8.262-6.437v-.025a4,4,0,0,0,.325-.722,6.4,6.4,0,0,0,.422-1.679c.885-5.461-1.985-14.677-3.384-25.387-1.632-12.506,1-27.974,1-27.974l3.92-.258c-.372.98-.747,1.985-1.166,3.012-1.282,12.39-1,30.819.536,50.815a3.5,3.5,0,0,1,.4.35c.025-.022.025-.022.047-.022,1.4-.164,3.22,2.682,2.357,4.689C429.151,455.994,430.6,458.209,430.6,458.209Z" transform="translate(-368.038 -259.973)" opacity="0.1"/>
      <path id="Path_2442" data-name="Path 2442" d="M451.693,404.69c-9.8,2.237-24.87.933-40.924-2.335.189-.838.375-1.657.539-2.448a78.3,78.3,0,0,1,10.08-.492c13.344,0,17.242.561,20.929-4.455,5.552-7.515,9.821-19.974,1.515-16.892a34.083,34.083,0,0,1-13.3,1.843c9.73-5.413,16.753-7.235,19.085-9.544C450.247,385.208,449.992,399.557,451.693,404.69Z" transform="translate(-369.487 -313.264)" opacity="0.1"/>
      <path id="Path_2443" data-name="Path 2443" d="M427.714,364.732s-.725,3.431-1.774,6.812c-.047.164-.095.35-.142.539-.022,0,0,.022,0,.022l-.277.769a3.586,3.586,0,0,0-.094-.466,19.213,19.213,0,0,1-6.16,3.759c-3.5-.444-9.239-5.322-15.376-11.293a8.265,8.265,0,0,0,.725.536.306.306,0,0,0,.095.069c5.785,4.317,11.362,7.209,14.954,5.18a38.608,38.608,0,0,0,4.947-3.29A33.589,33.589,0,0,0,427.714,364.732Z" transform="translate(-384.284 -325.385)" opacity="0.1"/>
      <path id="Path_2444" data-name="Path 2444" d="M422.673,363.723s3.633,4.837,2.146,9.336-6.179,10.159-6.179,10.159l11.274-7.783Z" transform="translate(-352.558 -327.555)" opacity="0.1"/>
      <g id="Group_2036" data-name="Group 2036" transform="translate(13.985 35.689)">
        <path id="Path_2445" data-name="Path 2445" d="M431.019,367.517l8.567,24.678c.523,1.509-.583,2.735-2.527,2.735H415.233a4.875,4.875,0,0,1-4.427-2.735l-8.567-24.678c-.539-1.553.621-2.779,2.511-2.779h21.83A4.814,4.814,0,0,1,431.019,367.517Z" transform="translate(-402.106 -361.061)" fill="#eb339e"/>
        <path id="Path_2446" data-name="Path 2446" d="M415.929,365.692l.3.86c.3.857-.331,1.55-1.4,1.55h-7.414a2.714,2.714,0,0,1-2.48-1.55l-.3-.86c-.3-.857.331-1.55,1.405-1.55h7.411A2.718,2.718,0,0,1,415.929,365.692Z" transform="translate(-396.835 -362.343)" fill="#36164d"/>
        <path id="Path_2447" data-name="Path 2447" d="M408.985,364.879a.8.8,0,0,1,.016.492c-.031.488-.532.816-1.2.816a2.37,2.37,0,0,1-1.818-.816,1.37,1.37,0,0,1-.321-.492c-.258-.734.312-1.307,1.232-1.307A2.31,2.31,0,0,1,408.985,364.879Z" transform="translate(-394.588 -363.571)" fill="#36164d"/>
        <path id="Path_2448" data-name="Path 2448" d="M419.66,378.935a10.562,10.562,0,0,0,.81,2.329,10.033,10.033,0,0,0,.942,1.837,17.585,17.585,0,0,0,1.941,2.492,2.179,2.179,0,0,0,.331.369,24.033,24.033,0,0,0,7.742,5.514c1.339.614,2.785,1.1,4.2,1.635l.555,1.594c.523,1.509-.583,2.735-2.527,2.735H411.823a4.875,4.875,0,0,1-4.427-2.735l-2.411-6.948c.662-1.919,1.805-3.636,2.467-5.555a6.511,6.511,0,0,0,.236-.939,7.921,7.921,0,0,0,.413-2.492,12.611,12.611,0,0,0-.51-4.414,8.565,8.565,0,0,0-.438-1.55,22.159,22.159,0,0,0-3.463-5.558h2.915l-.113-.328c-.3-.857.331-1.55,1.405-1.55h2.2a1.37,1.37,0,0,1-.321-.492c-.258-.734.312-1.307,1.232-1.307a2.31,2.31,0,0,1,2.089,1.307.8.8,0,0,1,.016.492h2.2a2.718,2.718,0,0,1,2.483,1.55l.114.328h5.265a4.814,4.814,0,0,1,4.44,2.779l.964,2.779c-2.622.693-5.483,1.144-7.468,2.489a3.382,3.382,0,0,0-1.509,1.84A4.107,4.107,0,0,0,419.66,378.935Z" transform="translate(-398.697 -363.571)" opacity="0.5" fill="url(#linear-gradient)" style="mix-blend-mode: overlay;isolation: isolate"/>
      </g>
      <path id="Path_2449" data-name="Path 2449" d="M416.825,373.748c-6.693-1.969-4.207.463-1.071,2.36s1.506.381,2.108-.469S416.825,373.748,416.825,373.748Z" transform="translate(-365.58 -307.562)" fill="#fbd783"/>
    </g>
    <g id="Group_3283" data-name="Group 3283" transform="translate(940.303 141.181)">
      <g transform="matrix(1, 0, 0, 1, -286.3, -25.74)" filter="url(#Rounded_Rectangle_1)">
        <rect id="Rounded_Rectangle_1-4" data-name="Rounded Rectangle 1" width="100" height="36" rx="4" transform="translate(286 25.56)" fill="#0bc694"/>
      </g>
      <rect id="Rectangle_806" data-name="Rectangle 806" width="71" height="5" transform="translate(5.697 4.819)" fill="#fff"/>
      <rect id="Rectangle_807" data-name="Rectangle 807" width="27" height="7" transform="translate(5.697 13.819)" fill="#fff"/>
      <rect id="Rectangle_808" data-name="Rectangle 808" width="41" height="6" transform="translate(5.697 25.819)" fill="#fff"/>
      <rect id="Rectangle_809" data-name="Rectangle 809" width="40" height="6" transform="translate(51.697 25.819)" fill="#fff"/>
    </g>
    <g id="Group_3284" data-name="Group 3284" transform="translate(689.714 239.015)">
      <g transform="matrix(1, 0, 0, 1, -35.71, -123.58)" filter="url(#Rounded_Rectangle_1-2)">
        <rect id="Rounded_Rectangle_1-5" data-name="Rounded Rectangle 1" width="99" height="36" rx="4" transform="translate(36 123.56)" fill="#731ee8"/>
      </g>
      <rect id="Rectangle_806-2" data-name="Rectangle 806" width="70" height="5" transform="translate(7.286 5.985)" fill="#fff"/>
      <rect id="Rectangle_807-2" data-name="Rectangle 807" width="27" height="6" transform="translate(7.286 14.985)" fill="#fff"/>
      <rect id="Rectangle_808-2" data-name="Rectangle 808" width="41" height="5" transform="translate(7.286 27.985)" fill="#fff"/>
      <rect id="Rectangle_809-2" data-name="Rectangle 809" width="41" height="5" transform="translate(51.286 27.985)" fill="#fff"/>
    </g>
    <g id="Group_3285" data-name="Group 3285" transform="translate(855.822 281.726)">
      <g transform="matrix(1, 0, 0, 1, -201.82, -166.29)" filter="url(#Rounded_Rectangle_1-3)">
        <rect id="Rounded_Rectangle_1-6" data-name="Rounded Rectangle 1" width="99" height="36" rx="4" transform="translate(202 166.56)" fill="#0091ff"/>
      </g>
      <rect id="Rectangle_806-3" data-name="Rectangle 806" width="70" height="4" transform="translate(7.178 6.274)" fill="#fff"/>
      <rect id="Rectangle_807-3" data-name="Rectangle 807" width="27" height="7" transform="translate(7.178 14.274)" fill="#fff"/>
      <rect id="Rectangle_808-3" data-name="Rectangle 808" width="40" height="4" transform="translate(7.178 27.274)" fill="#fff"/>
      <rect id="Rectangle_809-3" data-name="Rectangle 809" width="40" height="4" transform="translate(52.178 27.274)" fill="#fff"/>
    </g>
    <g id="diagram" transform="translate(863.706 463.45)">
      <g id="Group_3286" data-name="Group 3286" transform="translate(0 0)">
        <path id="Path_4025" data-name="Path 4025" d="M293.891,200.568a22.085,22.085,0,0,1,9.159-27.149l-4.841-9.514a32.757,32.757,0,0,0-13.938,41.3Z" transform="translate(-281.649 -159.612)" fill="#fff"/>
        <path id="Path_4026" data-name="Path 4026" d="M343.718,163.578a22.086,22.086,0,0,1,27.857,9.4l9.622-4.634a32.758,32.758,0,0,0-42.32-14.277Z" transform="translate(-319.62 -151.148)" fill="#fff"/>
        <path id="Path_4027" data-name="Path 4027" d="M352.3,210.352l-9.62,4.634a22.091,22.091,0,0,1-39.714,19.128l-9.622,4.634a32.754,32.754,0,0,0,58.956-28.4Z" transform="translate(-289.41 -190.43)" fill="#fff"/>
      </g>
      <g id="Group_3287" data-name="Group 3287" transform="translate(0.005 0.006)">
        <path id="Path_4028" data-name="Path 4028" d="M295.872,211.607a22.085,22.085,0,0,1,3.74-28.407l-6.588-8.4a32.757,32.757,0,0,0-5.7,43.211Z" transform="translate(-281.665 -166.848)" fill="#ffa200"/>
        <path id="Path_4029" data-name="Path 4029" d="M329.086,165.647a22.087,22.087,0,0,1,29.148,3.839l8.545-6.406a32.758,32.758,0,0,0-44.28-5.831Z" transform="translate(-308.759 -151.167)" fill="#004ecb"/>
        <path id="Path_4030" data-name="Path 4030" d="M356.253,193.767l-8.544,6.405a22.091,22.091,0,0,1-35.27,26.441l-8.545,6.406a32.754,32.754,0,0,0,52.359-39.252Z" transform="translate(-296.414 -179.432)" fill="#eb339e"/>
      </g>
      <path id="Path_4031" data-name="Path 4031" d="M340.931,253.317A13.683,13.683,0,0,0,364.22,257.3l-10.479-8.8Z" transform="translate(-320.983 -215.742)" fill="#ffe7be"/>
      <path id="Path_4032" data-name="Path 4032" d="M383.854,210.476,379,223.271l10.479,8.8a13.682,13.682,0,0,0-5.626-21.592Z" transform="translate(-346.242 -190.513)" fill="#f59fd1"/>
      <path id="Path_4033" data-name="Path 4033" d="M356.871,208.723a13.687,13.687,0,0,0-17.664,17.611l12.81-4.816Z" transform="translate(-319.26 -188.76)" fill="#00d8ff"/>
    </g>
    <g id="Group_3332" data-name="Group 3332" transform="translate(739.608 281.908)">
      <g id="joints_x5F_4" transform="matrix(0.978, -0.208, 0.208, 0.978, 274.366, -123.902)">
        <g id="Group_3321" data-name="Group 3321" transform="translate(0 0)">
          <path id="Path_4099" data-name="Path 4099" d="M589.7,324.815l-7.359-.641,6.817-6.726Z" transform="translate(-562.218 -174.349)" fill="#f95fc3"/>
          <g id="Group_3319" data-name="Group 3319" transform="translate(0 2.068)">
            <path id="Path_4100" data-name="Path 4100" d="M554.98,463.894c-.294,0-.568-.52-.664-1.338-3.588-30.449,3.5-49.318,15.232-80.585,2.423-6.455,5.171-13.772,8.01-21.72,16.711-46.78,13.448-94.285,12.049-107.73a3.277,3.277,0,0,1,.478-2.4c.373-.293.759.3.866,1.328,1.452,13.958,4.847,63.259-12.4,111.54-2.852,7.981-5.6,15.318-8.034,21.788-11.341,30.21-18.187,48.444-14.872,76.573a3.434,3.434,0,0,1-.448,2.449A.314.314,0,0,1,554.98,463.894Z" transform="translate(-553.38 -250.042)" fill="#a1b1bc"/>
          </g>
          <g id="Group_3320" data-name="Group 3320" transform="translate(32.047 78.76)">
            <path id="Path_4101" data-name="Path 4101" d="M602.062,303.2l-2.482-2.462c6.35-6.4,10.427-13.531,12.117-21.189l3.414.754C613.276,288.621,608.886,296.325,602.062,303.2Z" transform="translate(-599.58 -279.552)" fill="#00d8ff"/>
          </g>
          <ellipse id="Ellipse_50" data-name="Ellipse 50" cx="2.768" cy="2.767" rx="2.768" ry="2.767" transform="translate(33.925)" fill="#0bc694"/>
        </g>
      </g>
      <g id="joints_x5F_3" transform="translate(223.409 28.533)">
        <g id="Group_3324" data-name="Group 3324" transform="translate(0 0)">
          <g id="Group_3322" data-name="Group 3322" transform="translate(2.069 0.236)">
            <path id="Path_4102" data-name="Path 4102" d="M518.223,338.9a.692.692,0,0,1-.323-.08c-.2-.108-5.009-2.73-3.863-10.74.648-4.539,3.607-8.358,6.739-12.4,4.073-5.257,8.285-10.692,7.706-18.213a10.6,10.6,0,0,0-4.445-7.612c-14.6-11.45-59.668-8.367-71.119-6.474a.7.7,0,0,1-.228-1.38c11.585-1.914,57.243-4.985,72.21,6.754a11.946,11.946,0,0,1,4.976,8.605c.62,8.058-3.957,13.965-8,19.177-3.016,3.892-5.864,7.568-6.459,11.741-1,6.989,2.963,9.215,3.132,9.307a.7.7,0,0,1-.33,1.316Z" transform="translate(-452.104 -280.158)" fill="#a1b1bc"/>
          </g>
          <g id="Group_3323" data-name="Group 3323" transform="translate(32.293 6.454)">
            <path id="Path_4103" data-name="Path 4103" d="M519.04,294.223a150.089,150.089,0,0,0-23.71-1.676l.006-3.5a153.543,153.543,0,0,1,24.272,1.722Z" transform="translate(-495.33 -289.051)" fill="#c7a0f6"/>
          </g>
          <ellipse id="Ellipse_51" data-name="Ellipse 51" cx="2.768" cy="2.767" rx="2.768" ry="2.767" fill="#0091ff"/>
        </g>
      </g>
      <g id="joints_x5F_2" transform="translate(0 0)">
        <g id="Group_3328" data-name="Group 3328" transform="translate(0 0)">
          <path id="Path_4104" data-name="Path 4104" d="M163.577,375.372l-2.531,6.94-4.725-8.329Z" transform="translate(-137.659 -279.611)" fill="#f95fc3"/>
          <g id="Group_3325" data-name="Group 3325" transform="translate(0 2.067)">
            <path id="Path_4105" data-name="Path 4105" d="M227.986,393.679c-.553,0-1.1,0-1.657-.013-27.941-.422-52.813-11.291-70.031-30.6-20.253-22.717-29.866-51.509-25.717-77.019,3.116-19.154,13.684-34.772,29.758-43.979a.7.7,0,0,1,.7,1.214c-15.7,8.993-26.026,24.261-29.073,42.991-4.083,25.1,5.4,53.459,25.381,75.864,35.98,40.357,101.427,40.435,149,.175,8.229-6.964,15.245-14.147,22.03-21.093,16.14-16.522,30.08-30.791,51.227-31.322,19.755-.5,29.566,9.705,34.321,18.35a.7.7,0,1,1-1.225.674c-4.568-8.3-14-18.1-33.06-17.626-20.58.517-34.334,14.6-50.262,30.9-6.808,6.969-13.848,14.175-22.127,21.182C284.108,382.954,256.024,393.678,227.986,393.679Z" transform="translate(-129.632 -241.97)" fill="#a1b1bc"/>
          </g>
          <g id="Group_3326" data-name="Group 3326" transform="translate(10.85 59.982)">
            <path id="Path_4106" data-name="Path 4106" d="M150.332,352.855a89.1,89.1,0,0,1-5.183-28l3.5-.062a85.624,85.624,0,0,0,4.985,26.9Z" transform="translate(-145.149 -324.798)" fill="#ffba00"/>
          </g>
          <g id="Group_3327" data-name="Group 3327" transform="translate(122.602 133.803)">
            <path id="Path_4107" data-name="Path 4107" d="M305.737,441.965l-.764-3.411a119.645,119.645,0,0,0,24.037-8.179l1.468,3.173A123.008,123.008,0,0,1,305.737,441.965Z" transform="translate(-304.973 -430.375)" fill="#00d8ff"/>
          </g>
          <ellipse id="Ellipse_52" data-name="Ellipse 52" cx="2.768" cy="2.767" rx="2.768" ry="2.767" transform="translate(28.288)" fill="#731ee8"/>
        </g>
      </g>
      <g id="joints_x5F_1" transform="translate(205.362 117.109)">
        <g id="Group_3331" data-name="Group 3331" transform="translate(0 0)">
          <path id="Path_4108" data-name="Path 4108" d="M504.51,521.761l-7.26,1.37L502,514.813Z" transform="translate(-445.567 -439.079)" fill="#00e2ec"/>
          <g id="Group_3329" data-name="Group 3329" transform="translate(2.069)">
            <path id="Path_4109" data-name="Path 4109" d="M429.738,505.348c-.965,0-1.9-.026-2.784-.076a.7.7,0,0,1-.659-.738.707.707,0,0,1,.738-.658c13.484.765,36.672-4.149,45.283-20.784,3.854-7.445,4.935-18.119,6.078-29.421,1.9-18.73,3.857-38.1,18.416-47.067a.7.7,0,0,1,.734,1.191c-13.97,8.608-15.9,27.626-17.757,46.018-1.158,11.438-2.252,22.242-6.229,29.924C465.213,499.855,443.8,505.348,429.738,505.348Z" transform="translate(-426.294 -406.501)" fill="#a1b1bc"/>
          </g>
          <g id="Group_3330" data-name="Group 3330" transform="translate(57.921 41.969)">
            <path id="Path_4110" data-name="Path 4110" d="M509.574,493.7l-3.4-.807c1.427-6.01,2.124-12.9,2.863-20.192.208-2.051.417-4.117.645-6.182l3.476.384c-.227,2.054-.436,4.11-.642,6.15C511.763,480.47,511.054,487.469,509.574,493.7Z" transform="translate(-506.172 -466.524)" fill="#f95fc3"/>
          </g>
          <ellipse id="Ellipse_53" data-name="Ellipse 53" cx="2.768" cy="2.767" rx="2.768" ry="2.767" transform="translate(0 95.306)" fill="#eb339e"/>
        </g>
      </g>
    </g>
  </g>
</svg>
